<svg xmlns="http://www.w3.org/2000/svg" viewBox="0 0 192 192">
  <defs>
    <linearGradient id="g" x1="0" x2="1" y1="0" y2="1">
      <stop offset="0%" stop-color="#9333ea" />
      <stop offset="100%" stop-color="#ec4899" />
    </linearGradient>
  </defs>
  <rect width="192" height="192" rx="40" fill="url(#g)" />
  <path d="M96 46c-26 0-47 21-47 47 0 26 21 47 47 47s47-21 47-47c0-26-21-47-47-47Zm0 18c16 0 29 13 29 29s-13 29-29 29-29-13-29-29 13-29 29-29Zm0 60c-23 0-42 19-42 42h84c0-23-19-42-42-42Z" fill="#fff" opacity="0.95"/>
</svg>
