<svg xmlns="http://www.w3.org/2000/svg" viewBox="0 0 512 512">
  <defs>
    <linearGradient id="g" x1="0" x2="1" y1="0" y2="1">
      <stop offset="0%" stop-color="#9333ea" />
      <stop offset="100%" stop-color="#ec4899" />
    </linearGradient>
  </defs>
  <rect width="512" height="512" rx="100" fill="url(#g)" />
  <path d="M256 120c-78.6 0-142 63.4-142 142s63.4 142 142 142 142-63.4 142-142-63.4-142-142-142Zm0 56c47.2 0 86 38.8 86 86s-38.8 86-86 86-86-38.8-86-86 38.8-86 86-86Zm0 176c-66.3 0-120 53.7-120 120h240c0-66.3-53.7-120-120-120Z" fill="#fff" opacity="0.95"/>
</svg>
